Hanif_Shallow_7_5_grf.mot
version=1
nRows=31
nColumns=19
inDegrees=yes
endheader
time	right_ground_force_vx	right_ground_force_vy	right_ground_force_vz	right_ground_force_px	right_ground_force_py	right_ground_force_pz	right_ground_torque_x	right_ground_torque_y	right_ground_torque_z	left_ground_force_vx	left_ground_force_vy	left_ground_force_vz	left_ground_force_px	left_ground_force_py	left_ground_force_pz	left_ground_torque_x	left_ground_torque_y	left_ground_torque_z
3.400000	3.374880	287.652000	65.766000	0.190297	0.000000	-1.443660	-17.891100	4.250090	-2.013300	-5.158010	302.900000	-67.240000	0.196611	0.000000	-0.965638	19.035300	-3.559200	-0.215360
3.405000	3.483480	287.297000	65.706300	0.190402	0.000000	-1.443270	-17.981200	4.208450	-1.989270	-5.237620	303.139000	-66.938000	0.196444	0.000000	-0.965204	18.918500	-3.497060	-0.286517
3.410000	3.476450	287.202000	66.010200	0.190165	0.000000	-1.443930	-17.785300	4.167550	-2.065430	-5.339020	301.797000	-67.018900	0.196077	0.000000	-0.966225	19.144100	-3.477450	-0.395030
3.415000	3.208520	287.652000	65.990900	0.189875	0.000000	-1.443750	-17.869500	4.287130	-2.128000	-5.350320	301.509000	-66.891900	0.196060	0.000000	-0.965547	18.921900	-3.505240	-0.394551
3.420000	3.417860	287.052000	66.165600	0.190173	0.000000	-1.443690	-17.847000	4.213790	-2.048410	-5.361600	301.239000	-66.713700	0.195446	0.000000	-0.965281	18.824500	-3.513030	-0.587207
3.425000	3.449560	286.500000	65.946100	0.190294	0.000000	-1.443560	-17.847800	4.234580	-2.003060	-5.533270	302.778000	-67.179400	0.195904	0.000000	-0.964668	18.736300	-3.461110	-0.457701
3.430000	3.153820	286.395000	66.141700	0.190581	0.000000	-1.443610	-17.830400	4.156050	-1.927140	-5.337630	300.635000	-66.774400	0.195810	0.000000	-0.965582	18.877800	-3.516180	-0.466628
3.435000	2.881790	285.762000	65.858400	0.190180	0.000000	-1.443380	-17.860200	4.089010	-2.054340	-5.451250	299.813000	-66.966600	0.195810	0.000000	-0.965715	18.866700	-3.453350	-0.471243
3.440000	3.422200	286.809000	65.427300	0.190362	0.000000	-1.442760	-18.098600	4.103970	-2.021130	-5.735080	300.980000	-67.250000	0.195654	0.000000	-0.965258	18.805800	-3.469100	-0.518311
3.445000	3.149360	286.018000	65.457300	0.191409	0.000000	-1.443450	-17.853400	4.070050	-1.699550	-5.473600	298.951000	-66.932300	0.195317	0.000000	-0.966358	19.005700	-3.504130	-0.607927
3.450000	3.056480	285.451000	65.750900	0.190927	0.000000	-1.442930	-17.967100	4.076270	-1.832700	-5.338640	299.883000	-66.954900	0.195730	0.000000	-0.965936	18.935600	-3.436330	-0.502081
3.455000	3.202090	286.485000	65.600900	0.191711	0.000000	-1.442870	-18.050300	3.964440	-1.637760	-5.416470	300.967000	-66.718800	0.195955	0.000000	-0.965739	18.946400	-3.481560	-0.429977
3.460000	2.771540	287.407000	65.631500	0.191641	0.000000	-1.442950	-18.089700	4.060290	-1.640290	-5.744310	300.570000	-67.132000	0.195728	0.000000	-0.966115	19.039700	-3.542330	-0.475879
3.465000	2.957240	286.465000	65.460500	0.191734	0.000000	-1.442480	-18.160900	4.056250	-1.607740	-5.314280	302.204000	-67.278600	0.196303	0.000000	-0.965359	18.905600	-3.361500	-0.350525
3.470000	2.693120	288.753000	65.780100	0.191596	0.000000	-1.442670	-18.256300	4.023260	-1.674960	-5.771440	302.104000	-67.074700	0.196643	0.000000	-0.966227	19.167900	-3.345870	-0.240388
3.475000	2.715630	290.047000	65.853800	0.191729	0.000000	-1.442990	-18.244000	4.061430	-1.639350	-5.531870	302.028000	-66.925400	0.196811	0.000000	-0.966242	19.166300	-3.433340	-0.172109
3.480000	3.026390	289.395000	66.223700	0.191872	0.000000	-1.442010	-18.483200	4.062220	-1.590210	-5.905780	303.320000	-67.148400	0.196917	0.000000	-0.965747	19.102200	-3.416710	-0.142640
3.485000	2.932610	289.755000	65.941300	0.191349	0.000000	-1.441830	-18.560000	4.163240	-1.731930	-6.036320	303.649000	-66.954500	0.196769	0.000000	-0.966285	19.286400	-3.357040	-0.204399
3.490000	3.192790	290.104000	65.940300	0.191581	0.000000	-1.442720	-18.321000	4.186400	-1.662890	-5.723930	304.730000	-67.120000	0.196882	0.000000	-0.965973	19.256200	-3.390490	-0.170045
3.495000	3.993450	289.627000	65.877700	0.191540	0.000000	-1.442460	-18.356600	4.153510	-1.689920	-5.947780	302.568000	-67.176400	0.196546	0.000000	-0.966911	19.405800	-3.340630	-0.270390
3.500000	3.516240	291.290000	65.801300	0.191584	0.000000	-1.442630	-18.417000	4.227200	-1.672160	-5.395130	302.712000	-66.969100	0.196651	0.000000	-0.966221	19.201000	-3.427070	-0.229728
3.505000	3.749850	289.089000	65.911600	0.191104	0.000000	-1.442170	-18.408300	4.147670	-1.814220	-5.111320	303.177000	-67.043200	0.196796	0.000000	-0.966056	19.176400	-3.402990	-0.194979
3.510000	4.149020	290.219000	65.694500	0.191139	0.000000	-1.442760	-18.305700	4.189550	-1.814580	-5.493860	302.787000	-66.836900	0.195589	0.000000	-0.966634	19.331400	-3.467680	-0.557899
3.515000	4.005440	290.533000	65.749300	0.190476	0.000000	-1.443050	-18.241600	4.258220	-2.002040	-4.946900	302.776000	-66.866100	0.195482	0.000000	-0.965923	19.110100	-3.578920	-0.575485
3.520000	3.775840	288.245000	65.362600	0.190889	0.000000	-1.441940	-18.421000	4.220560	-1.858940	-5.160760	303.054000	-66.499000	0.195496	0.000000	-0.965429	18.979500	-3.510610	-0.589774
3.525000	4.251280	288.023000	65.634400	0.191150	0.000000	-1.441980	-18.390500	4.191470	-1.788200	-4.764110	303.414000	-66.660200	0.194938	0.000000	-0.965984	19.165500	-3.558560	-0.762134
3.530000	3.999010	287.238000	65.161200	0.191215	0.000000	-1.442540	-18.181300	4.219600	-1.753540	-4.809950	302.049000	-66.825200	0.194908	0.000000	-0.966817	19.332800	-3.610010	-0.746591
3.535000	3.864200	289.089000	64.906900	0.191317	0.000000	-1.442660	-18.265000	4.256130	-1.736110	-4.593810	301.525000	-66.765900	0.194921	0.000000	-0.965994	19.048600	-3.606520	-0.743769
3.540000	3.640290	288.763000	64.818800	0.191470	0.000000	-1.441960	-18.449700	4.165400	-1.704600	-4.430070	301.426000	-66.501000	0.194845	0.000000	-0.966298	19.132000	-3.609890	-0.771298
3.545000	3.105660	290.028000	64.743500	0.191781	0.000000	-1.443030	-18.227400	4.187370	-1.611410	-4.569500	302.531000	-66.341400	0.194992	0.000000	-0.966276	19.197700	-3.669210	-0.720064
3.550000	3.755630	288.348000	64.672500	0.191190	0.000000	-1.441890	-18.442900	4.199330	-1.780360	-4.608390	300.082000	-65.951200	0.194958	0.000000	-0.966000	18.960500	-3.642270	-0.721771
